<svg width="44" height="44" viewBox="0 0 44 44" fill="currentColor" xmlns="http://www.w3.org/2000/svg">
<path d="M12.833 33C10.8163 33 9.18468 34.65 9.18468 36.6667C9.18468 38.6834 10.8163 40.3334 12.833 40.3334C14.8497 40.3334 16.4997 38.6834 16.4997 36.6667C16.4997 34.65 14.8497 33 12.833 33ZM1.83301 3.66669V7.33335H5.49967L12.0997 21.2484L9.62467 25.74C9.33134 26.2534 9.16634 26.8584 9.16634 27.5C9.16634 29.5167 10.8163 31.1667 12.833 31.1667H34.833V27.5H13.603C13.3463 27.5 13.1447 27.2984 13.1447 27.0417L13.1997 26.8217L14.8497 23.8334H28.508C29.883 23.8334 31.093 23.0817 31.7163 21.945L38.2797 10.0467C38.4263 9.79002 38.4997 9.47835 38.4997 9.16669C38.4997 8.15835 37.6747 7.33335 36.6663 7.33335H9.55134L7.82801 3.66669H1.83301ZM31.1663 33C29.1497 33 27.518 34.65 27.518 36.6667C27.518 38.6834 29.1497 40.3334 31.1663 40.3334C33.183 40.3334 34.833 38.6834 34.833 36.6667C34.833 34.65 33.183 33 31.1663 33Z" fill="" fill-opacity="0.87"/>
</svg>
